<svg id="Layer_1" data-name="Layer 1" xmlns="http://www.w3.org/2000/svg" viewBox="0 0 1024 1024"><defs><style>.cls-1,.cls-2{fill:#f16a3e;}.cls-2{font-size:142.02px;font-family:MyriadPro-Regular, Myriad Pro;}.cls-3{fill:#fff;}</style></defs><path class="cls-1" d="M400.4,220.43c-9.07-1.52-18.16-2.89-27.26-4.19-1.91-.27-2.69-1-3.33-2.87C365,199.1,355.5,189.46,340.7,186.05c-13.17-3-26.55-5.21-39.81-7.85-8.15-1.63-16.3-2.89-23.19-2.12a74.25,74.25,0,0,0-37.64,12.65q-54.9,37-109.7,74.13c-19.86,13.5-24.39,37.86-11,57.76q22.14,32.76,44.4,65.43a41.53,41.53,0,0,0,9.12,10.08c15.17,11.48,32.94,11.95,49,1.12q54.56-36.67,109-73.51c15.95-10.83,26.53-25.69,30.92-44.54,2.55-11,4.47-22.07,6.5-33.14.42-2.29.9-3.08,3.48-2.62,8,1.42,16.13,2.5,24.2,3.72s14.89-3.42,16.08-10.91C413.37,228.59,408.41,221.77,400.4,220.43Zm-37.68,23.35c-2.84,13.33-4.27,27-8.38,40-4.65,14.73-13.92,26.19-26.68,34.81q-54.78,37-109.61,73.86c-14.69,9.85-31.66,8.17-44.2-4.14a40.2,40.2,0,0,1-4.85-6c-14.71-21.52-29.09-43.27-44.13-64.55-12.56-17.77-6.3-39.45,9.49-50,36.32-24.2,72.37-48.81,108.54-73.23a67.92,67.92,0,0,1,34.16-12c8.14-1.19,16.57,1.29,25.08,2.87,11.58,2.14,23.14,4.38,34.7,6.65,11.88,2.32,20.49,8.92,25.63,19.94.33.7,1.07,1.48.4,2.23-.51.57-1.37.2-2.07.1-1-.15-2-.39-3.06-.46a15.66,15.66,0,0,1-10.75-5c-6.18-6.28-16.15-6.9-23.52-2.42a20.21,20.21,0,0,0,9,37.71,19,19,0,0,0,12-3.14,6.23,6.23,0,0,1,4.94-1c3.85.75,7.74,1.31,11.63,1.81C362.4,242,363,242.46,362.72,243.78Zm-30.25-6.34c-4.37.32-9.36-2.82-11.66-7.35a14.19,14.19,0,0,1,2.07-15.65,13.68,13.68,0,0,1,14.88-3.91c-9.44.83-14.33,4.68-15.32,11.72C321.5,228.94,325.34,234.76,332.47,237.44Zm73.86-3c-.15,3.51-3.2,6.62-7.34,7-5-.74-10.51-1.54-16-2.38q-23.29-3.56-46.58-7.15c-2.92-.45-5.63-1.16-7.14-4.19a7.21,7.21,0,0,1,7.14-10.41Q368,222,399.52,226.9C403.79,227.56,406.5,230.79,406.33,234.45Z"/><path class="cls-1" d="M897.56,893.15V856.8c0-.81,0-1.62,0-2.43a6.24,6.24,0,0,0-5.61-5.9,26.71,26.71,0,0,0-3.23-.06c-11.17,0-22.35,0-33.52,0-6.1,0-5.24.82-5.24-5.43q0-120.76,0-241.53V565.89c0-1.08,0-2.15,0-3.23,0-.84.67-1.24,1.3-.82s1.31.95,1.95,1.43q8.21,6.24,16.4,12.46a23.72,23.72,0,0,0,2.63,1.87,6.21,6.21,0,0,0,9.14-5.91c-.33-3.62-.73-7.23-1.17-10.84-1.56-13-3.18-25.9-4.69-38.87-.36-3.11-1.24-5.77-4-7.48a8.45,8.45,0,0,1-1-.75l-96.93-78.6-82.18-66.64c-3.73-3-3-2.26-3-6.38,0-12.52,0-25,0-37.56,0-1.08,0-2.16,0-3.23a6.26,6.26,0,0,0-5.86-6.1c-1.21-.11-2.43-.05-3.64-.05h-67c-1.08,0-2.16,0-3.23,0-1.54-.06-1.81-.31-1.81-2q0-9.69,0-19.39c0-2,.23-2.16,2.41-2.22.67,0,1.35,0,2,0H635c.94,0,1.89.05,2.83,0a6.27,6.27,0,0,0,5.89-6.07c.07-.93,0-1.88,0-2.82V203.08c0-.94,0-1.89,0-2.83a6.28,6.28,0,0,0-5.84-6.13,31.38,31.38,0,0,0-3.63-.06H390.71a30,30,0,0,0-4,.1,6.26,6.26,0,0,0-5.57,6c-.07.81,0,1.62,0,2.43v80.37c0,.81,0,1.62,0,2.42a6.31,6.31,0,0,0,5.8,6.18,26.59,26.59,0,0,0,3.22.06c8.62,0,17.24,0,25.85,0,1.88,0,2.13.25,2.14,2.08q0,8.47,0,17c0,5.06.56,4.54-4.51,4.55H346.15c-1.21,0-2.43-.07-3.63,0a6.21,6.21,0,0,0-6,6c-.09,1.07,0,2.15,0,3.23,0,12,0,24,0,35.94,0,5,.69,3.77-3.35,7.05Q287,404.84,240.92,442.21q-44.38,36-88.8,71.95c-2.43,2-4,4.1-4.38,7.32-1.8,15.64-3.75,31.26-5.63,46.89a24.8,24.8,0,0,0-.26,4,6.14,6.14,0,0,0,9,5.24,16.51,16.51,0,0,0,2.32-1.6l12.86-9.77c2.14-1.63,4.27-3.28,6.44-4.87.6-.44,1.16-1.35,2.05-.84.67.38.3,1.21.36,1.85s0,1.07,0,1.61v279.9c0,1.08,0,2.15-.06,3.23a1.19,1.19,0,0,1-1.3,1.22c-1.07,0-2.15,0-3.23,0H136.41c-.94,0-1.88,0-2.82,0-3.85.27-6.26,2.6-6.28,6.49-.07,13.33,0,26.66,0,40,0,.13,0,.27,0,.4a6.24,6.24,0,0,0,6.14,6.23c1.62.07,3.24,0,4.85,0h750a29.25,29.25,0,0,0,3.63-.08,6.18,6.18,0,0,0,5.58-5.92C897.59,894.77,897.56,894,897.56,893.15ZM688.25,385.58a14.35,14.35,0,0,1,.09-1.61c.09-.78.77-1.06,1.49-.58a20.8,20.8,0,0,1,2,1.41Q715,403.6,738.22,422.4q20.37,16.53,40.71,33.11,22.41,18.18,44.86,36.31c12.33,10,24.61,20.07,37,30a6.58,6.58,0,0,1,2.7,5c.49,5.75,1.35,11.47,2,17.2.43,3.6.81,7.21,1.19,10.81a2.52,2.52,0,0,1-.29,2c-1.3,0-2.12-1-3-1.7-14.26-10.8-28.55-21.58-42.74-32.49-11.84-9.1-23.56-18.36-35.33-27.56Q771.64,484.41,758,473.71q-21.78-17-43.58-34-11.45-9-22.92-17.87c-.43-.33-.86-.65-1.3-1a4.54,4.54,0,0,1-1.94-4.15C688.29,406.31,688.25,395.94,688.25,385.58ZM837.46,843.7c0,5,.47,4.64-4.47,4.64-4.44,0-8.89,0-13.33,0-1.81,0-2-.29-2.11-2.14,0-1.34,0-2.69,0-4V609.08c0-1.48.07-3-.06-4.44a6.17,6.17,0,0,0-6.21-5.71c-2.68.12-6,2.23-6.08,5.88,0,1.48,0,3,0,4.45V842.73q0,2.22-.09,4.44a1.06,1.06,0,0,1-1,1.06,10.8,10.8,0,0,1-1.61.11H787.91a10.76,10.76,0,0,1-1.6-.11,1.07,1.07,0,0,1-1-1.07c0-1.34-.09-2.69-.09-4V583.4c0-1.35.06-2.7-.06-4a6.15,6.15,0,0,0-12.25-.17,46.08,46.08,0,0,0-.08,4.85V843.77c0,1.07,0,2.15-.06,3.22a1.26,1.26,0,0,1-1.25,1.3c-.53.05-1.07.05-1.61.05-4.71,0-9.43,0-14.14,0-2.79,0-2.82-.08-2.87-3,0-1.35,0-2.69,0-4V558.93c0-1.61.07-3.24-.07-4.84a6.16,6.16,0,0,0-12.25-.1c-.14,1.61-.07,3.23-.07,4.85V842.4q0,2.22,0,4.44a1.36,1.36,0,0,1-1.52,1.47q-8.49,0-17,0c-1,0-1.37-.69-1.38-1.61,0-1.35,0-2.69,0-4V533.24c0-1.48.07-3-.07-4.44a6.17,6.17,0,0,0-12.25,0c-.13,1.47-.06,3-.06,4.44v309c0,1.48,0,3,0,4.44,0,1.24-.43,1.62-1.78,1.63-5.38,0-10.77,0-16.15,0h-.41a1.41,1.41,0,0,1-1.49-1.52c0-1.34,0-2.69,0-4V643.22q0-99.76,0-199.54c0-1.35,0-2.69.07-4a.79.79,0,0,1,1.14-.68c1,.67,2,1.36,3,2.09q38.28,29.07,76.54,58.14c21.76,16.53,43.61,32.94,65,49.91,4,3.19,3.41,2.32,3.41,7Q837.48,699.91,837.46,843.7ZM398.57,278.86c-5.59,0-4.95.7-5-4.91q0-31.29,0-62.6c0-5.19-.36-4.59,4.51-4.59H626.7c5,0,4.56-.51,4.56,4.53q0,31.5,0,63c0,1.07,0,2.15,0,3.23a1.2,1.2,0,0,1-1.24,1.29c-1.21.06-2.42.05-3.63.05H512.46Q455.52,278.87,398.57,278.86ZM594.21,296c0,5.12,0,10.23,0,15.34,0,.95,0,1.89-.09,2.83a1.06,1.06,0,0,1-1.07,1c-1.21.06-2.42.07-3.63.07H435.19c-5.08,0-4.54.54-4.56-4.51q0-8.48,0-17c0-1.83.25-2,2.14-2.08.95,0,1.89,0,2.83,0H589.86C594.62,291.64,594.2,291.28,594.21,296ZM355.12,327.85q157.13,0,314.25,0c1.08,0,2.15,0,3.23,0,3.2.06,3.26.12,3.31,3.5,0,.94,0,1.89,0,2.83q0,47.65,0,95.32,0,206.61,0,413.21c0,1.48,0,3-.12,4.43a1.06,1.06,0,0,1-1,1,21.62,21.62,0,0,1-2.41.13H586.71c-.54,0-1.08,0-1.62,0-1.5-.1-1.79-.39-1.85-2-.06-1.35,0-2.7,0-4V608.36c0-1.48.06-3,0-4.44a6.18,6.18,0,0,0-6-6c-.94-.08-1.88,0-2.83,0H450.79c-1.08,0-2.16-.06-3.23,0a6.19,6.19,0,0,0-5.9,6c-.1,1.48,0,3,0,4.44V842.69c0,1.48-.05,3-.12,4.44a1.06,1.06,0,0,1-1,1,21.62,21.62,0,0,1-2.41.13H352.44c-.54,0-1.08,0-1.62,0-1.5-.1-1.8-.39-1.86-2,0-1.34,0-2.69,0-4V588.17h0q0-127,0-254.06C348.93,327,348.11,327.85,355.12,327.85ZM518.65,733c0-1.35.06-2.7-.07-4a6.18,6.18,0,0,0-12.34.12c-.1,1.2,0,2.42,0,3.63q0,55.34,0,110.67c0,5.64.75,5-4.84,5q-21.41,0-42.81,0c-1.07,0-2.15,0-3.23,0a1.2,1.2,0,0,1-1.25-1.28c0-1.21,0-2.42,0-3.63V679.89c0-5-.46-4.55,4.55-4.55H566.4c4.84,0,4.43-.35,4.43,4.26q0,82.18,0,164.38c0,4.8.56,4.42-4.22,4.43H522.18c-3.73,0-3.53,0-3.53-3.53ZM454.07,644.4a1.22,1.22,0,0,1,1.21-1.32c.94-.07,1.88-.06,2.82-.06H566.7c4.46,0,4.13-.29,4.13,4.15s0,9.15,0,13.73c0,1.33-.37,1.68-1.64,1.74-1.07.05-2.15,0-3.22,0H459c-1.07,0-2.15,0-3.23,0-1.28,0-1.68-.42-1.69-1.69,0-3.5,0-7,0-10.5C454,648.43,454,646.42,454.07,644.4Zm0-16q0-7.87,0-15.74c0-1.58.32-1.83,1.91-1.9.94,0,1.89,0,2.83,0H566.16c1,0,1.89,0,2.83,0,1.52.07,1.81.34,1.82,2q0,7.88,0,15.75c0,1.57-.31,1.82-1.91,1.89-1.07,0-2.15,0-3.23,0H459.1c-1.08,0-2.16,0-3.23,0C454.33,630.27,454.05,630,454,628.36ZM336.13,437.58c.55.4.38,1,.39,1.47,0,1.48,0,3,0,4.45q0,199.32,0,398.66c0,2,.95,4.41-.64,5.77-1.34,1.16-3.63.37-5.49.4-3.91,0-7.81,0-11.72,0-1.62,0-1.93-.33-2-1.83s0-3,0-4.45q0-154.08,0-308.18c0-1.62.07-3.24-.05-4.85a6.16,6.16,0,0,0-12.28,0c-.12,1.61-.05,3.23-.05,4.85V842.42c0,1.48,0,3,0,4.45a1.35,1.35,0,0,1-1.54,1.44q-8.49,0-17,0a1.21,1.21,0,0,1-1.3-1.24c-.06-1.34-.08-2.69-.08-4V558.27c0-1.35.05-2.7-.06-4a6.16,6.16,0,0,0-12.29,0c-.11,1.47,0,3,0,4.44q0,141.57,0,283.14c0,2,.38,4-.33,6-2,1.07-4.2.45-6.29.51-3.77.11-7.54.06-11.31,0-1.63,0-1.89-.31-2-1.87,0-1.35,0-2.7,0-4V584.31c0-1.62,0-3.23,0-4.85-.05-3.45-3.56-5.82-6.16-5.78a6.28,6.28,0,0,0-6.14,5.81c-.12,1.47,0,3,0,4.44V842.44c0,1.48,0,3,0,4.44a1.35,1.35,0,0,1-1.55,1.43q-8.47,0-17,0a1.21,1.21,0,0,1-1.3-1.25c-.05-1.48-.07-3-.07-4.44q0-115.73,0-231.44c0-1.75,0-3.5,0-5.25a10.35,10.35,0,0,0-.13-2,6.18,6.18,0,0,0-6.07-5,6.27,6.27,0,0,0-6.1,5.41,41,41,0,0,0-.08,4.44V787.32q0,28.27,0,56.54c0,5,.42,4.46-4.63,4.48q-6.67,0-13.33,0c-1.62,0-1.87-.31-1.94-1.89-.05-1.07,0-2.15,0-3.23V556.42a8.15,8.15,0,0,0,0-1.21c-.45-2.6.83-4.16,2.82-5.71,45.95-35.87,91.78-71.87,138.43-106.83,1.94-1.45,3.84-2.95,5.78-4.4C334.91,437.89,335.37,437.29,336.13,437.58Zm-176,117.34A9.21,9.21,0,0,1,156.8,557a6.21,6.21,0,0,1-.2-3.69c.54-5.08,1.15-10.14,1.76-15.21.47-4,1.07-8,1.43-12a4.83,4.83,0,0,1,2-3.71c11-8.86,21.93-17.8,32.9-26.7q13.94-11.31,27.91-22.58,16.62-13.46,33.24-26.91,18.18-14.74,36.32-29.53,18-14.62,36.07-29.19c1.67-1.35,3.33-2.73,5-4,.84-.63,1.59-.25,1.66.76,0,.67,0,1.34,0,2,0,10.36-.06,20.73.05,31.09a6,6,0,0,1-2.69,5.35c-10.56,8.11-21,16.38-31.49,24.58-12.18,9.53-24.33,19.11-36.58,28.56-11.07,8.54-22.27,16.93-33.41,25.39l-53,40.27Zm725,331.61c0,1.8-.36,2.12-2.1,2.2-1.08,0-2.16,0-3.23,0H145.06c-6,0-5.34.61-5.37-5.44,0-5.79,0-11.58,0-17.37,0-.94,0-1.88,0-2.82.09-1.53.47-2,1.9-2,1.21-.07,2.43,0,3.64,0l206.4,0H821.41l58.17,0c1.07,0,2.15,0,3.23,0,2,.08,2.31.38,2.32,2.44Q885.18,875,885.12,886.53Z"/><path class="cls-1" d="M426.24,449.91a19.51,19.51,0,0,0-.05-2.42,6.18,6.18,0,0,0-5.86-5.62c-.67-.05-1.35,0-2,0H377.56c-.67,0-1.34,0-2,0-3.6.23-5.63,2.27-5.85,5.88-.06.94,0,1.88,0,2.82v39.13c0,.94,0,1.89.05,2.82a6.23,6.23,0,0,0,5.67,5.84,28.94,28.94,0,0,0,3.23,0h38.32c.81,0,1.61,0,2.42,0a6.88,6.88,0,0,0,6.88-6.94c0-.54,0-1.08,0-1.61ZM413.56,470.2h0v14.13a1.31,1.31,0,0,1-1.44,1.5l-3.23,0H386.66c-.94,0-1.88,0-2.82,0-1.35-.06-1.7-.4-1.78-1.63,0-.54,0-1.08,0-1.62v-25c0-.67,0-1.34.08-2a1.11,1.11,0,0,1,1-1,15.06,15.06,0,0,1,2-.12H410.6c.4,0,.81,0,1.21,0,1.32.08,1.66.4,1.72,1.67.05.94,0,1.88,0,2.82Z"/><path class="cls-1" d="M604.81,498.36a26.72,26.72,0,0,0,2.83,0h38.72c.95,0,1.89,0,2.83,0a6.59,6.59,0,0,0,4-1.72,6.09,6.09,0,0,0,2-5.06c0-7.26,0-14.52,0-21.78h0v-19c0-.94,0-1.88,0-2.82q-.25-5.85-6-6.17c-.81,0-1.61,0-2.42,0H607.2c-.94,0-1.88,0-2.82.05a5.89,5.89,0,0,0-5.45,4.58,13.21,13.21,0,0,0-.35,4q0,19.56,0,39.13c0,.81,0,1.62,0,2.42A6.82,6.82,0,0,0,604.81,498.36Zm6.51-42.05c0-1.6.29-1.9,1.87-1.9,6.46,0,12.92,0,19.37,0,2.69,0,5.39,0,8.08,0,1.88,0,2.11.26,2.13,2.1,0,3.23,0,6.46,0,9.69v16.14a21.66,21.66,0,0,1-.09,2.42,1.11,1.11,0,0,1-1.06,1c-.8.07-1.61.09-2.41.09H627.12v0c-4.71,0-9.42,0-14.12,0-1.42,0-1.67-.26-1.68-1.66,0-4.71,0-9.41,0-14.12S611.28,460.89,611.32,456.31Z"/><path class="cls-1" d="M605.06,660c.93.07,1.88,0,2.82,0h35.5c1.75,0,3.5.06,5.24,0,4.06-.18,6.48-2.55,6.49-6.62,0-14.53,0-29.05,0-43.57,0-.14,0-.27,0-.41-.21-3.63-2.21-5.68-5.8-5.92-.94-.06-1.88,0-2.82,0H607.37c-1,0-1.89,0-2.83,0a6,6,0,0,0-5.68,4.82,14.66,14.66,0,0,0-.28,4q0,19.37,0,38.73c0,.8,0,1.62,0,2.42A6.78,6.78,0,0,0,605.06,660Zm6.26-42.15c0-1.55.3-1.77,2-1.83.81,0,1.61,0,2.42,0h22.6c1.08,0,2.15,0,3.23.09a1.23,1.23,0,0,1,1.22,1.31c0,.68,0,1.35,0,2V644c0,.54,0,1.08,0,1.62-.07,1.34-.38,1.71-1.61,1.78-.94.05-1.89,0-2.83,0H627c-4.44,0-8.88,0-13.32,0-2.32,0-2.39-.09-2.4-2.57,0-7.13,0-14.26,0-21.39C611.3,621.57,611.27,619.69,611.32,617.81Z"/><path class="cls-1" d="M376.06,579.18c.54,0,1.08,0,1.62,0H418a19.21,19.21,0,0,0,2,0,6.8,6.8,0,0,0,6.19-6.37c0-.66,0-1.34,0-2V530.83c0-.67,0-1.35,0-2a6.18,6.18,0,0,0-6.17-6.16c-.8,0-1.61,0-2.42,0H378.1c-.94,0-1.89,0-2.82,0-3.35.27-5.34,2.31-5.58,5.73-.06.93,0,1.88,0,2.82v33.89c0,2.55-.08,5.11,0,7.66C369.85,576.62,372.23,578.94,376.06,579.18Zm6-41.91c0-1.8.26-2.08,2.15-2.08q13.74,0,27.46,0c1.55,0,1.87.34,1.87,1.93q0,13.73,0,27.45c0,1.91-.15,2-2.11,2.06-9,0-18,0-27.05,0H384c-1.56-.1-1.91-.38-1.92-1.91,0-4.58,0-9.16,0-13.73h0C382,546.42,382,541.85,382.06,537.27Z"/><path class="cls-1" d="M649.93,522.7a24.09,24.09,0,0,0-2.82-.07H606.77c-.68,0-1.35,0-2,0-3.23.22-5.24,1.87-5.91,5a17.31,17.31,0,0,0-.26,3.6q0,19.58,0,39.14c0,.8,0,1.61,0,2.41a6.82,6.82,0,0,0,6.25,6.31,21.68,21.68,0,0,0,2.42,0H646.8c.81,0,1.62,0,2.42,0a6.76,6.76,0,0,0,5-2.95c1-1.3.86-2.79.86-4.27q0-10.49,0-21V530.8c0-.94,0-1.89,0-2.83A5.57,5.57,0,0,0,649.93,522.7Zm-7.17,42.47c0,1-.62,1.41-1.54,1.44s-1.88,0-2.82,0H627.1v0c-4.71,0-9.42,0-14.13,0-1.38,0-1.64-.28-1.65-1.68,0-5.92,0-11.84,0-17.76q0-5.25,0-10.5a1.33,1.33,0,0,1,1.49-1.47l2,0h24.22c.8,0,1.61,0,2.41.08a1.25,1.25,0,0,1,1.29,1.26c0,.67,0,1.35,0,2v24.62C642.79,563.82,642.77,564.49,642.76,565.17Z"/><path class="cls-1" d="M369.71,654a6.26,6.26,0,0,0,6,6c.67.06,1.34,0,2,0h42a6.86,6.86,0,0,0,6.6-6.81c0-.53,0-1.07,0-1.61V611.61c0-.67,0-1.35,0-2a6.18,6.18,0,0,0-6.17-6.16c-.81-.05-1.62,0-2.42,0H378.09c-.8,0-1.61,0-2.42,0a5.83,5.83,0,0,0-6,6.17c.07.93,0,1.88,0,2.82v38.73C369.67,652.09,369.63,653,369.71,654Zm12.42-36.91a1.12,1.12,0,0,1,1.08-1,16.92,16.92,0,0,1,2-.11h25.44c.4,0,.81,0,1.21,0,1.31.08,1.64.37,1.66,1.73,0,3.09,0,6.19,0,9.28v4.85h0c0,4.57,0,9.15,0,13.72,0,1.62-.24,1.85-1.91,1.85q-13.72,0-27.45,0c-1.83,0-2.12-.3-2.12-2.1q0-13.53,0-27.06A9.67,9.67,0,0,1,382.13,617.06Z"/><path class="cls-1" d="M369.7,411.21c.17,3.84,2.54,6.16,6.38,6.39.67,0,1.35,0,2,0h39.13c.81,0,1.62,0,2.42,0a6.79,6.79,0,0,0,6.57-6.41c.06-.66,0-1.34,0-2V369.23a18.91,18.91,0,0,0-.08-2.82,6.19,6.19,0,0,0-5.72-5.32c-.94-.08-1.88,0-2.83,0H378.08c-.67,0-1.35,0-2,0-4.13.16-6.18,2.14-6.37,6.18,0,.8,0,1.61,0,2.42v34.69C369.67,406.64,369.59,408.93,369.7,411.21Zm12.35-35.55c.07-1.76.3-2,2.2-2.06.4,0,.81,0,1.21,0h25a15.1,15.1,0,0,1,2,.09,1.13,1.13,0,0,1,1,1.09c.06.8.06,1.61.06,2.42V389.3h0c0,4.44,0,8.89,0,13.33,0,2.37-.06,2.42-2.56,2.42-8.75,0-17.5,0-26.24,0-.41,0-.81,0-1.21,0a1.4,1.4,0,0,1-1.48-1.52c0-.67,0-1.34,0-2V377.27C382,376.73,382,376.19,382.05,375.66Z"/><path class="cls-1" d="M426.22,690.19a6.18,6.18,0,0,0-6-6c-.93-.07-1.88,0-2.82,0H377.9a24.8,24.8,0,0,0-3.23.09,5.54,5.54,0,0,0-4.92,5.07,29,29,0,0,0-.08,3.23v39.53c0,.94,0,1.89.05,2.83a6.25,6.25,0,0,0,5.74,5.77,26.5,26.5,0,0,0,2.82,0h14.53c8.07,0,16.14-.26,24.2.08,6.5.28,9.45-3.21,9.32-9.11-.29-13-.09-26.09-.09-39.13C426.24,691.8,426.28,691,426.22,690.19Zm-12.67,22.07c0,4.57,0,9.15,0,13.72,0,2-.16,2.22-1.94,2.22q-13.73,0-27.45,0c-1.8,0-2.09-.31-2.09-2.14,0-9,0-18,0-27.05,0-.27,0-.54,0-.81,0-1,.67-1.37,1.57-1.43.54,0,1.08,0,1.62,0h25.43c.54,0,1.08,0,1.61.06a1.24,1.24,0,0,1,1.22,1.32c.05.94,0,1.88,0,2.82v11.31Z"/><path class="cls-1" d="M426.24,812.55V773.42c0-.81,0-1.62,0-2.42a6.19,6.19,0,0,0-6-6c-.93-.07-1.88,0-2.82,0H377.92a24.8,24.8,0,0,0-3.23.09,5.54,5.54,0,0,0-4.94,5,29,29,0,0,0-.08,3.23V812.9c0,.94,0,1.89.05,2.83a6.1,6.1,0,0,0,3.79,5.28,8.13,8.13,0,0,0,3.55.55h13.31c9.14,0,18.29-.21,27.43.08,4.84.16,9.09-2.76,8.44-8.69C426.23,812.82,426.24,812.68,426.24,812.55Zm-12.69-6.43a8.86,8.86,0,0,1-.12,2,1.17,1.17,0,0,1-.78.75,13.87,13.87,0,0,1-2.41.14H385.61c-.81,0-1.61,0-2.41-.1a1.14,1.14,0,0,1-1.08-1,15.1,15.1,0,0,1-.08-2V780.47c0-.54,0-1.08,0-1.62a1.29,1.29,0,0,1,1.31-1.24c.67-.06,1.34-.07,2-.07h25a19.19,19.19,0,0,1,2,.08,1.12,1.12,0,0,1,1,1,19.19,19.19,0,0,1,.07,2Q413.57,793.4,413.55,806.12Z"/><path class="cls-1" d="M598.59,411.09a6.79,6.79,0,0,0,6.49,6.5c.8.06,1.61,0,2.42,0h39.13a26.49,26.49,0,0,0,2.82-.05,6.7,6.7,0,0,0,4.94-3.12,6.54,6.54,0,0,0,.74-3.9q0-10.49,0-21V369.4a31.53,31.53,0,0,0-.07-3.23,5.57,5.57,0,0,0-5-5,22.09,22.09,0,0,0-2.82-.08H606.94c-.8,0-1.61,0-2.42,0a6,6,0,0,0-5.67,4.84,15,15,0,0,0-.27,4q0,19.37,0,38.73C598.57,409.47,598.53,410.28,598.59,411.09Zm12.71-21.83c0-4.57,0-9.15,0-13.72,0-1.62.29-1.92,1.86-1.92,6.19,0,12.37,0,18.56,0,3,0,5.92,0,8.88,0,1.9,0,2.13.26,2.15,2.09,0,3,0,5.92,0,8.88v16.95c0,.81,0,1.62-.08,2.42a1.12,1.12,0,0,1-1.05,1,19.31,19.31,0,0,1-2,.09H614.22c-.4,0-.81,0-1.21,0-1.41-.08-1.67-.28-1.69-1.65,0-3.64,0-7.27,0-10.9v-3.23Z"/><path class="cls-1" d="M655.08,770.26a5.57,5.57,0,0,0-5.24-5.2A26.49,26.49,0,0,0,647,765H607.08a22.09,22.09,0,0,0-2.82.06,5.81,5.81,0,0,0-5.25,4.3,13.92,13.92,0,0,0-.43,4.39q0,19.57,0,39.13c0,.81,0,1.62,0,2.42a6.81,6.81,0,0,0,6.33,6.23,19.22,19.22,0,0,0,2,0H647.3a14.9,14.9,0,0,0,2.41-.08c2.86-.44,5.65-3,5.42-6-.07-.94,0-1.88,0-2.83V773.08A26.49,26.49,0,0,0,655.08,770.26Zm-12.34,37.47c0,.82-.59,1.15-1.31,1.24a14.43,14.43,0,0,1-1.61,0H614c-.53,0-1.07,0-1.6-.08a1,1,0,0,1-1-1c-.06-.8-.07-1.61-.07-2.41,0-4.17,0-8.35,0-12.52h0c0-4.57,0-9.14,0-13.72,0-1.33.35-1.61,1.69-1.69.54,0,1.08,0,1.61,0h24.62a21.67,21.67,0,0,1,2.42.12,1.09,1.09,0,0,1,1,1q.09,1,.09,2v25.43C642.79,806.65,642.76,807.19,642.74,807.73Z"/><path class="cls-1" d="M598.61,734.46a6.82,6.82,0,0,0,6.28,6.28c.8.08,1.61,0,2.41,0h39.54a20.4,20.4,0,0,0,2.82-.07c2.92-.41,5.7-3,5.47-6,0-.67,0-1.34,0-2V691.94a21.67,21.67,0,0,0-.06-2.42,5.57,5.57,0,0,0-5.19-5.25,26.49,26.49,0,0,0-2.82-.06H607.13a26.49,26.49,0,0,0-2.82,0,5.82,5.82,0,0,0-5.29,4.26,13.6,13.6,0,0,0-.45,4.39V732C598.57,732.85,598.53,733.66,598.61,734.46Zm12.71-36c0-1.35.35-1.63,1.67-1.71.54,0,1.07,0,1.61,0h24.62a24,24,0,0,1,2.41.11,1.1,1.1,0,0,1,1.07,1c.06.67.08,1.34.08,2q0,12.72,0,25.43c0,.53,0,1.07,0,1.61a1.23,1.23,0,0,1-1.29,1.25c-.94.07-1.88.05-2.82.06H626.92v0c-4.57,0-9.15,0-13.72,0-1.67,0-1.88-.22-1.88-1.87Q611.29,712.41,611.32,698.48Z"/><path class="cls-1" d="M445.84,408.92c0,.8,0,1.61,0,2.41a6.83,6.83,0,0,0,6.3,6.25,14.6,14.6,0,0,0,1.62,0h40.72a11.14,11.14,0,0,0,3.57-.47,5.82,5.82,0,0,0,4.27-5.28,24.09,24.09,0,0,0,.06-2.82V369.52a31.34,31.34,0,0,0-.07-3.22,6,6,0,0,0-5.32-5.2,19.27,19.27,0,0,0-2-.05H453.49c-.54,0-1.08,0-1.62,0a6.2,6.2,0,0,0-6,5.9c-.07.8,0,1.61,0,2.42Zm12.69-33.4c0-1.57.34-1.9,1.9-1.91,6.46,0,12.92,0,19.38,0,2.69,0,5.38,0,8.07,0,1.88,0,2.12.28,2.14,2.1,0,3,0,5.92,0,8.88v17A19.51,19.51,0,0,1,490,404a1.12,1.12,0,0,1-1.08,1c-.8.08-1.6.09-2.41.1H474.35v0c-4.71,0-9.42,0-14.13,0-1.37,0-1.67-.3-1.68-1.65,0-4.44,0-8.88,0-13.33C458.51,385.21,458.5,380.37,458.53,375.52Z"/><path class="cls-1" d="M522.46,412a5.91,5.91,0,0,0,4,5.07,11.36,11.36,0,0,0,4,.54h40.73a14.37,14.37,0,0,0,1.61,0,6.85,6.85,0,0,0,6.14-6,24.09,24.09,0,0,0,.06-2.82V369.66c0-.81,0-1.62,0-2.42a6.19,6.19,0,0,0-6.16-6.17c-.94-.06-1.88,0-2.82,0H531.27c-.94,0-1.89,0-2.82,0-2.45-.1-4,1.27-5.3,3.1-.84,1.19-.73,2.56-.73,3.9q0,10.68,0,21.37h0v19.76A20.22,20.22,0,0,0,522.46,412Zm12.38-36.94c0-1,.68-1.38,1.58-1.44.53,0,1.07,0,1.61,0h25.42c.54,0,1.08,0,1.61.06a1.28,1.28,0,0,1,1.22,1.33c.05.53,0,1.07,0,1.61V402a16.81,16.81,0,0,1-.09,2,1,1,0,0,1-1.06,1c-1.88,0-3.76.07-5.64.08h-8.88c-4.57,0-9.15,0-13.72,0-1.78,0-2.1-.35-2.1-2.15,0-9,0-18,0-27C534.81,375.6,534.83,375.33,534.84,375.06Z"/><path class="cls-1" d="M502.41,528.67a5.82,5.82,0,0,0-2.14-4.58c-1.4-1.34-3.08-1.47-4.86-1.47-7,0-14,0-21,0H464c-3.9,0-7.8-.07-11.69,0s-6.19,2.46-6.42,6.32c0,.67,0,1.34,0,2v39.52c0,.67,0,1.34,0,2a6.79,6.79,0,0,0,6.74,6.66c.94.05,1.88,0,2.82,0h28.63c3.63,0,7.26.06,10.89,0,5.17-.11,7.38-2.32,7.47-7.37,0-.53,0-1.07,0-1.61V531.49C502.42,530.55,502.37,529.61,502.41,528.67Zm-14.75,38c-9,0-18,0-27.05,0h-.4c-1.36-.09-1.62-.33-1.68-1.68,0-1.08,0-2.15,0-3.23,0-8.21,0-16.42,0-24.63,0-1.56.34-1.89,1.91-1.9,4.71,0,9.42,0,14.13,0h0c4.44,0,8.88,0,13.32,0,1.87,0,2.13.28,2.13,2.11q0,13.53,0,27.05C490,566.37,489.77,566.63,487.66,566.63Z"/><path class="cls-1" d="M579,489.82q0-20,0-39.92a19.51,19.51,0,0,0-.05-2.42,6.18,6.18,0,0,0-5.87-5.61c-.94-.07-1.88,0-2.83,0h-37.9c-1.48,0-3-.06-4.43.05a5.92,5.92,0,0,0-5.45,5.49c-.07.8,0,1.61,0,2.42v40.32a21.68,21.68,0,0,0,0,2.42,5.88,5.88,0,0,0,4.18,5.36,11.44,11.44,0,0,0,4,.5h16.94c7.79,0,15.59-.2,23.38.08,4.61.16,8.66-3.13,8.07-8.26A2.67,2.67,0,0,1,579,489.82Zm-14.8-4c-8.47,0-17,0-25.42,0-.68,0-1.35,0-2,0-1.55-.08-1.91-.39-1.92-1.92,0-4.57,0-9.15,0-13.72h0c0-4.44,0-8.88,0-13.32,0-2.19.23-2.48,2.18-2.48q13.71,0,27.44,0c1.51,0,1.86.37,1.87,2q0,13.71,0,27.44C566.3,485.65,566.11,485.83,564.19,485.84Z"/><path class="cls-1" d="M502.42,451.27c0-1.08-.07-2.16,0-3.23.12-2.25-1-3.8-2.65-5.15a6.15,6.15,0,0,0-4.2-1.05q-10.49,0-21,0c-7,0-14,0-21,0a8.61,8.61,0,0,0-4,.47,6.58,6.58,0,0,0-3.85,6.51c0,14,0,28,0,41.93a9.94,9.94,0,0,0,.32,2.78c.92,3.17,4.08,4.95,7.48,4.91,13.57-.12,27.15-.05,40.72-.06a13.84,13.84,0,0,0,2.81-.19c3.31-.69,5-2.77,5.22-6.21.06-1.07,0-2.15,0-3.22ZM490,483.85c-.08,1.59-.35,1.95-1.85,2-2.55.05-5.11,0-7.67,0h-6.86c-4.17,0-8.35,0-12.52,0-2.56,0-2.59-.06-2.61-2.79,0-4.17,0-8.34,0-12.51,0-4.58,0-9.15,0-13.73,0-2.21.18-2.42,2.2-2.42q13.51,0,27,0a5.28,5.28,0,0,1,1.19.12,1.16,1.16,0,0,1,1,1.08c0,.67.07,1.34.07,2v25C490,483,490.05,483.44,490,483.85Z"/><path class="cls-1" d="M579,531c0-.81,0-1.62,0-2.42a6.18,6.18,0,0,0-6-5.9c-.94-.07-1.88,0-2.82,0H542.3c-4.57,0-9.14-.06-13.71,0-3.69.07-6,2.39-6.16,6,0,.67,0,1.35,0,2V571c0,.67,0,1.35,0,2a6,6,0,0,0,4.69,5.81,12.82,12.82,0,0,0,4,.33h39.12c.8,0,1.61,0,2.41,0a6.81,6.81,0,0,0,6.31-6.25c.08-.79,0-1.61,0-2.41ZM566.32,551.4h0v13.72c0,1-.45,1.5-1.44,1.5l-2,0H538.63c-.67,0-1.35,0-2,0-1.34-.08-1.69-.41-1.78-1.65,0-.53,0-1.07,0-1.61v-25a19.31,19.31,0,0,1,.09-2,1.12,1.12,0,0,1,1-1,14.81,14.81,0,0,1,2-.12h25.43c.4,0,.8,0,1.21,0,1.29.08,1.65.42,1.72,1.69,0,.94,0,1.89,0,2.83Z"/><text class="cls-2" transform="translate(164.13 341)">%</text><rect class="cls-3" x="371.92" y="225.14" width="30.54" height="14.44" rx="5.57" transform="translate(42.27 -59.08) rotate(9.23)"/></svg>