<svg id="Layer_1" data-name="Layer 1" xmlns="http://www.w3.org/2000/svg" viewBox="0 0 1024 1024"><defs><style>.cls-1{fill:none;stroke:#f16a3e;stroke-miterlimit:10;stroke-width:21px;}.cls-2{fill:#f16a3e;}</style></defs><circle class="cls-1" cx="507.52" cy="528.23" r="213.04"/><circle class="cls-1" cx="782.25" cy="296.94" r="149.61"/><circle class="cls-1" cx="239.11" cy="773.9" r="147.97"/><path class="cls-2" d="M650.44,527c-4.32-3.78-8.56-7.67-12.87-11.46-.83-.73-.92-1.21-.23-2.14,3.44-4.6,6.77-9.28,10.21-13.89.75-1,.81-1.49-.41-2.17-5-2.79-10-5.72-15-8.52-1.09-.6-1.18-1.1-.69-2.18,2.38-5.16,4.63-10.38,7-15.54.57-1.23.55-1.69-.9-2.13-5.38-1.63-10.69-3.51-16.08-5.11-1.55-.46-1.6-1.16-1.31-2.43,1.22-5.49,2.33-11,3.61-16.49.32-1.34-.14-1.59-1.25-1.7-5.72-.56-11.43-1.2-17.15-1.69-1.26-.11-1.55-.52-1.53-1.7.05-5.75,0-11.5,0-17.25,0-1.15-.24-1.52-1.47-1.38-5.76.67-11.53,1.23-17.29,1.89-1,.11-1.44,0-1.67-1.12-1.13-5.74-2.41-11.45-3.56-17.19-.24-1.19-.56-1.46-1.79-1-5.43,1.87-10.9,3.59-16.33,5.43-1.14.39-1.66.26-2.17-.94-2.25-5.28-4.64-10.5-6.92-15.77-.47-1.09-.81-1.37-2-.68-5,3-10,5.83-15,8.79-1,.58-1.45.47-2.1-.45-3.34-4.74-6.79-9.41-10.15-14.14-.67-.94-1.07-1.07-2-.23-4.22,3.9-8.56,7.67-12.75,11.6-1,1-1.56.81-2.5-.06-4.17-3.87-8.44-7.63-12.62-11.5-.89-.82-1.3-.89-2.05.18-3.34,4.75-6.8,9.4-10.16,14.14-.63.9-1.07,1.07-2.06.48-4.94-2.94-9.95-5.75-14.87-8.71-1.25-.75-1.66-.53-2.21.76-2.18,5.13-4.55,10.18-6.71,15.31-.57,1.35-1.09,1.66-2.5,1.16-5.37-1.86-10.79-3.56-16.18-5.37-1.07-.36-1.48-.25-1.72,1-1.13,5.74-2.41,11.45-3.56,17.19-.21,1.07-.58,1.28-1.65,1.16-5.7-.67-11.42-1.2-17.12-1.88-1.38-.16-1.69.23-1.68,1.54.06,5.7,0,11.4.05,17.09,0,1.18-.27,1.59-1.54,1.7-5.66.48-11.32,1.13-17,1.67-1.31.12-1.72.44-1.38,1.91,1.3,5.53,2.4,11.11,3.63,16.66.25,1.11.1,1.62-1.12,2-5.49,1.68-10.92,3.53-16.4,5.22-1.33.41-1.4.9-.86,2.06,2.4,5.21,4.69,10.47,7.09,15.69.46,1,.36,1.45-.64,2-5,2.8-10,5.74-15,8.53-1.29.71-1.26,1.2-.44,2.29,3.41,4.56,6.7,9.2,10.12,13.76.72,1,.69,1.44-.22,2.25-4.37,3.81-8.65,7.74-13,11.55-.95.83-.81,1.21.06,2,4.36,3.82,8.64,7.75,13,11.58.83.73.94,1.19.25,2.12-3.45,4.6-6.78,9.29-10.22,13.89-.77,1-.77,1.53.43,2.2,5,2.8,10,5.72,15,8.52,1.08.6,1.17,1.08.66,2.16-2.41,5.21-4.69,10.48-7.09,15.69-.53,1.14-.38,1.57.85,1.95,5.43,1.68,10.8,3.53,16.24,5.17,1.47.44,1.55,1.06,1.26,2.34-1.22,5.44-2.25,10.92-3.57,16.34-.4,1.67.25,1.82,1.51,2,5.49.54,11,1.21,16.48,1.63,1.67.13,1.94.75,1.93,2.2-.07,5.59,0,11.17,0,16.76,0,.58-.33,1.43.75,1.51a2.56,2.56,0,0,0,1.93.26c4.54-.63,9.1-1,13.66-1.5,3.41-.36,3.28-1.28,4.12,3,.06.33.12.65.19,1q1.42,6.81,2.87,13.63c.35,1.63.73,1.82,2.31,1.37.54-.15,1.06-.33,1.58-.51,4.7-1.63,9.52-2.93,14.19-4.64,1.34-.5,2-.16,2.51,1.16.6,1.66,1.41,3.24,2.12,4.87,1.46,3.34,3,6.66,4.46,10,.72,1.61,1.32,1.76,2.86,1,.35-.17.67-.39,1-.59,4.38-2.58,8.82-5.08,13.19-7.68,1.15-.69,1.79-.49,2.56.59,1.84,2.56,3.64,5.15,5.53,7.67,1.38,1.87,2.73,3.75,4.11,5.62,1,1.31,1.61,1.4,2.72.41,2.43-2.17,4.87-4.33,7.27-6.54,1.79-1.64,3.56-3.31,5.44-4.85.72-.6,1.32-.71,2,0a47.25,47.25,0,0,0,3.58,3.2c2.9,2.64,5.75,5.34,8.75,7.87,1.66,1.4,2,1.3,3.27-.42,3-4.15,6-8.35,9.06-12.48,1.46-2,1.45-2,3.52-.75q6.78,4,13.63,7.91c1.75,1,2,.87,2.82-1,2.1-4.93,4.38-9.79,6.5-14.71.74-1.74,1-1.83,2.75-1.25,5,1.62,9.94,3.39,15,4.89,2.34.7,2.48.65,3-1.71,1.17-5.23,2.19-10.5,3.35-15.73.18-.79.17-1.61,1.47-1.51,4.24.32,8.43,1,12.68,1.29,1.68.1,3.34.88,5,.22,1.16,0,.92-.84.92-1.52,0-5.8,0-11.61,0-17.42,0-1,.25-1.4,1.35-1.5,5.88-.54,11.76-1.22,17.64-1.8,1-.1,1.2-.37,1-1.42-1.28-5.59-2.41-11.22-3.69-16.82-.3-1.33,0-1.86,1.33-2.28,5.43-1.64,10.81-3.49,16.24-5.18,1.19-.37,1.4-.74.86-1.91-2.42-5.21-4.68-10.48-7.11-15.68-.57-1.23-.23-1.69.8-2.28,5-2.82,10-5.74,15-8.54,1.06-.59,1.11-1,.41-1.92-3.46-4.66-6.84-9.38-10.3-14-.65-.87-.7-1.35.2-2.13,4.32-3.78,8.55-7.68,12.87-11.46C651.43,528.33,651.46,527.84,650.44,527Zm-24.36,1.88a124.29,124.29,0,0,1-3,25.35,115.28,115.28,0,0,1-10,27.6,119.45,119.45,0,0,1-56.32,54.08,116.58,116.58,0,0,1-29.44,9,122.2,122.2,0,0,1-13.11,1.44c-3.26.19-6.51.31-9.75.2a120.57,120.57,0,0,1-30.7-4.84,116.33,116.33,0,0,1-44-24.2,120.16,120.16,0,0,1-26.35-32.65A117.33,117.33,0,0,1,391.12,550a120.83,120.83,0,0,1-1.74-13.56c-.26-3.54-.26-7.06-.25-10.59a111.77,111.77,0,0,1,4.14-29.15A116.33,116.33,0,0,1,410,460.87a121.08,121.08,0,0,1,12.14-14.8A119.64,119.64,0,0,1,438.26,432a14.25,14.25,0,0,1,1.43-.81,5.19,5.19,0,0,1,.24-.59c.18-.36.05-1,.65-1s.25.68.59.89c.44-1.54,2-1.88,3.08-2.57a114,114,0,0,1,27.5-12.81,120.16,120.16,0,0,1,20.91-4.57,117.3,117.3,0,0,1,19.46-.89,119.88,119.88,0,0,1,29.52,4.93,117.57,117.57,0,0,1,33.52,16.19,90.34,90.34,0,0,1,10.62,8.38,1.9,1.9,0,0,0,1.1.69h0a18.54,18.54,0,0,0,1.28-3.92c.17-.58.19-1.33,1-1.37s.93.81,1.08,1.42a34.44,34.44,0,0,0,25.27,25.29c.62.16,1.46.15,1.41,1.06,0,.76-.82.82-1.39,1a26.78,26.78,0,0,0-7.23,2.72,25.56,25.56,0,0,1,3.43,5.44,117.31,117.31,0,0,1,13.78,45.19A116,116,0,0,1,626.08,528.83Z"/><path class="cls-2" d="M576,454.77l-.25.21.08,0a4.7,4.7,0,0,0,2.5-1.53,35.38,35.38,0,0,0,8.46-12.13c.21-.48.62-1,.12-1.52h0A31.82,31.82,0,0,1,576,454.77Z"/><path class="cls-2" d="M606,466.7a32.78,32.78,0,0,0-9,7.52c-1.15,1.36-2.52,2.67-2.76,4.61h0l.25-.33h0A31.66,31.66,0,0,1,608.25,466C607.33,465.67,606.67,466.32,606,466.7Z"/><path class="cls-2" d="M439.41,433a14.76,14.76,0,0,1-8.43,7.78,8.85,8.85,0,0,0-1.08.41s0,.08-.12.21c5.18,1.84,8.94,5.14,10.75,10.66a15.6,15.6,0,0,1,10.79-10.58c-.36-.62-.92-.58-1.34-.75a15.23,15.23,0,0,1-8.22-7.35c-.47-.89-1.16-1.8-.59-2.93-.34-.21-.12-.88-.59-.89s-.47.62-.65,1a5.19,5.19,0,0,0-.24.59h0C440.09,431.86,439.68,432.44,439.41,433Z"/><path class="cls-2" d="M590.5,488.85c-.24.7-.62,1.36-1.5,1.29s-1-.74-1.22-1.4a35.42,35.42,0,0,0-3.73-9.18,33.88,33.88,0,0,0-20.53-15.71c-.43-.12-.86-.22-1.27-.38-.59-.24-1.12-.57-1.11-1.29s.56-1,1.17-1.21c1.22-.36,2.47-.63,3.65-1.1a38.53,38.53,0,0,0,8-4.06,8.07,8.07,0,0,1,1.67-.88c-2-.73-3.24-2.39-4.78-3.66a99,99,0,0,0-49.32-21.73,97.21,97.21,0,0,0-19.35-.85,98.85,98.85,0,0,0-35.26,8.56,95.94,95.94,0,0,0-25.12,16.22A98.65,98.65,0,0,0,409,514.56a105.13,105.13,0,0,0-.56,21.5,99.94,99.94,0,0,0,6.22,27.74A3.67,3.67,0,0,1,415,565a25.66,25.66,0,0,0,5.65-10.3c.12-.37.22-.75.3-1.12s.15-.94.71-1,.72.58.84,1a26.57,26.57,0,0,0,1.54,4.53,26.84,26.84,0,0,0,18,15.34c.58.16,1.51,0,1.46,1s-.9.65-1.45.8a26.57,26.57,0,0,0-15.57,11c.78.18,1.11.86,1.53,1.42a100.24,100.24,0,0,0,30.11,26.63A99.16,99.16,0,0,0,496,626.92a95.64,95.64,0,0,0,16.22.58A99.62,99.62,0,0,0,603.05,556a99.77,99.77,0,0,0,3.74-21c1.4-19.34-2.8-37.44-11.8-54.52a6.83,6.83,0,0,1-.68-1.35c-.79,2.36-2.3,4.43-2.92,6.87C591.14,487,590.83,487.91,590.5,488.85Zm-16.76,20.26-12.22,10.36L547.4,531.42l-4.94,4.13a1.82,1.82,0,0,0-.54,2.09q4,16,8,32c1.48,5.92,2.93,11.85,4.39,17.78a4.58,4.58,0,0,1-.05.77c-2.31-1.4-4.5-2.7-6.66-4q-18.86-11.62-37.7-23.29a1.75,1.75,0,0,0-2.2.06q-21.45,13.41-42.94,26.76c-.37.23-.68.57-1.26.5a24.24,24.24,0,0,1,1-4.78q5.54-22.84,11.14-45.67a1.84,1.84,0,0,0-.78-2.2c-4.57-3.71-9-7.58-13.52-11.37-3.79-3.19-7.62-6.33-11.41-9.51s-7.57-6.4-11.34-9.6c-1.16-1-2.31-2-3.73-3.23,5-.35,9.75-.63,14.44-1,6.46-.51,12.92-1.11,19.38-1.62,3.62-.29,7.25-.45,10.87-.7,2.69-.19,5.37-.46,8-.66.77-.05,1-.57,1.26-1.14q5.35-13.25,10.72-26.51,4.31-10.65,8.65-21.29c.06-.13.17-.24.44-.64,1,2.34,1.9,4.49,2.79,6.65q8.06,19.56,16.09,39.13a4,4,0,0,1,.24.62c.54,2.3,1.66,3.2,4.33,3.31,6,.25,12.06.81,18.09,1.25s12.07.91,18.1,1.3c4.55.3,9.08.73,14.09,1.14C579.35,504.34,576.55,506.73,573.74,509.11Z"/><path class="cls-2" d="M414.64,563.8a99.94,99.94,0,0,1-6.22-27.74,105.13,105.13,0,0,1,.56-21.5,98.65,98.65,0,0,1,32.78-61.09,95.94,95.94,0,0,1,25.12-16.22,98.85,98.85,0,0,1,35.26-8.56,97.21,97.21,0,0,1,19.35.85,99,99,0,0,1,49.32,21.73c1.54,1.27,2.82,2.93,4.78,3.66l.38-.16a1.92,1.92,0,0,1-1.11-.65c-2.23-1.88-4.41-3.83-6.73-5.6a102.17,102.17,0,0,0-23.7-13.38,96.7,96.7,0,0,0-31.11-6.89,99.06,99.06,0,0,0-23.86,1.53,100.78,100.78,0,0,0-35.2,13.72,103.68,103.68,0,0,0-20.36,17.06,91.72,91.72,0,0,0-10.18,13,100.27,100.27,0,0,0-11.91,25.72,108.48,108.48,0,0,0-3.42,15.94,107,107,0,0,0-.67,17.17,92,92,0,0,0,1.52,13.74,111.16,111.16,0,0,0,5.47,19.19L415,565A3.67,3.67,0,0,0,414.64,563.8Z"/><path class="cls-2" d="M595,480.48c9,17.08,13.2,35.18,11.8,54.52a99.77,99.77,0,0,1-3.74,21,99.51,99.51,0,0,1-90.88,71.49,95.64,95.64,0,0,1-16.22-.58,99.16,99.16,0,0,1-37.86-12.49A100.24,100.24,0,0,1,428,587.8c-.42-.56-.75-1.24-1.53-1.42l-.08.12c1.9,2.2,3.55,4.6,5.49,6.79A104.69,104.69,0,0,0,451,610.49a102,102,0,0,0,22.13,11.43,98.42,98.42,0,0,0,29.29,6,97.27,97.27,0,0,0,21.41-1.23,98.62,98.62,0,0,0,25.79-8,101.51,101.51,0,0,0,41.53-35.83,97.85,97.85,0,0,0,12.11-26,101.39,101.39,0,0,0,4.25-27.62,105,105,0,0,0-1-14.82,99.92,99.92,0,0,0-5.85-22.63,142.83,142.83,0,0,0-6.21-13.34h0c-.06.21-.12.41-.19.62A6.83,6.83,0,0,0,595,480.48Z"/><path class="cls-2" d="M573.92,455.81a38.53,38.53,0,0,1-8,4.06c-1.18.47-2.43.74-3.65,1.1-.61.17-1.16.48-1.17,1.21s.52,1.05,1.11,1.29c.41.16.84.26,1.27.38a33.88,33.88,0,0,1,20.53,15.71,35.42,35.42,0,0,1,3.73,9.18c.17.66.41,1.33,1.22,1.4s1.26-.59,1.5-1.29c.33-.94.64-1.89.89-2.85.62-2.44,2.13-4.51,2.92-6.87a1.5,1.5,0,0,1-.06-.29,3.54,3.54,0,0,0-.33.46,34,34,0,0,0-3.71,9.17c-.15.62-.18,1.46-1.07,1.45s-.84-.87-1-1.48c0-.16-.11-.31-.16-.47a33.92,33.92,0,0,0-19.24-22.7,34.7,34.7,0,0,0-6.26-2.12c-.5-.13-1-.28-1-.88s.45-.82,1-.93.86-.2,1.28-.32a32.17,32.17,0,0,0,12-6l-.13-.05A8.07,8.07,0,0,0,573.92,455.81Z"/><path class="cls-2" d="M575.72,455l.25-.21-.38.16Z"/><path class="cls-2" d="M594.31,479.13c.07-.21.13-.41.19-.62l-.25.33A1.5,1.5,0,0,0,594.31,479.13Z"/><path class="cls-2" d="M426.35,586.4c-.69.17-1,.76-1.28,1.32a35.82,35.82,0,0,0-2.78,6.38c-.13.44-.08,1-.92,1.29A27.88,27.88,0,0,0,414,582.11a28.59,28.59,0,0,0-13.36-7.45c.21-.36.29-.44.39-.49a8,8,0,0,1,1.41-.47,26.79,26.79,0,0,0,9.33-4.94c1.19-1,2.54-1.9,3.11-3.45h-.16a25.82,25.82,0,0,1-13.43,8.25c-.56.15-1.38.13-1.41.89s.83.71,1.37.87c10.08,2.91,16.62,9.37,19.53,19.47.15.52,0,1.4.86,1.4s.81-.92,1-1.49a24.58,24.58,0,0,1,3.77-8.2h0S426.36,586.43,426.35,586.4Z"/><path class="cls-2" d="M442,575.33c.55-.15,1.41,0,1.45-.8s-.88-.81-1.46-1a26.84,26.84,0,0,1-18-15.34,26.57,26.57,0,0,1-1.54-4.53c-.12-.46-.14-1.08-.84-1s-.62.53-.71,1-.18.75-.3,1.12A25.66,25.66,0,0,1,415,565v0a2.18,2.18,0,0,1-.09.23c.63,0,.92-.55,1.26-1A28.59,28.59,0,0,0,421,555c.16-.5.11-1.12.92-1.53,2.94,10.93,10,17.81,21.09,20.89a11,11,0,0,1-3.07,1.24,26.64,26.64,0,0,0-12.76,9.08c-.38.51-1,1-.82,1.74l.08,0h0A26.57,26.57,0,0,1,442,575.33Z"/><path class="cls-2" d="M415,565.08v0l-.25.27h.16A2.18,2.18,0,0,0,415,565.08Z"/><path class="cls-2" d="M426.43,586.38l-.08,0s0,.06,0,.1h0l.08-.12Z"/><path class="cls-2" d="M782.05,322.81c-26.87,0-53.74,0-80.61-.05-1.88,0-2.23.51-2.22,2.28,0,6.25.29,12.51-.23,18.76-.31,3.8-1.36,4.81-5.21,5a63.59,63.59,0,0,1-9.56-.26c-1.67-.19-2.24-1-2.29-2.58-.1-3.89-.37-7.78-.39-11.67-.14-35.52-.45-71,.31-106.56.07-3,.52-3.64,3.57-3.95a43.77,43.77,0,0,1,10.16.42,3.24,3.24,0,0,1,3.1,3.29c.47,5,.46,10,.52,15,.14,11.75.12,23.5.21,35.25,0,2.79.36,5.48,2.27,7.82a3.53,3.53,0,0,0,3.11,1.45q57.27,0,114.55,0c14.92,0,29.85,0,44.78,0,1.51,0,1.93-.3,1.94-1.9.07-8.48-.45-17,.34-25.43.38-4,1.76-5.21,5.77-5.24a38.89,38.89,0,0,1,7.47.28c1.65.3,2.67,1.09,2.77,2.83.17,2.71.45,5.41.48,8.11.26,26.21.48,52.42-.24,78.62,0,.21,0,.42,0,.63-.23,3.27-.5,3.61-3.82,3.77q-4.15.21-8.33.09c-3.55-.1-4.61-1-5-4.51-.67-6.3-.32-12.64-.25-19,0-2.19-.62-2.52-2.61-2.51Q822.35,322.88,782.05,322.81Z"/><path class="cls-2" d="M802.28,277.21c-16,0-32.08,0-48.12,0-1.67,0-2.09-.46-2-2.08a34.39,34.39,0,0,1,1.16-9.89c2.41-7.5,10.22-13.68,18.31-14.22,15.54-1,31.09-.72,46.63-.23a107.45,107.45,0,0,1,21.07,2.3c.14,0,.28,0,.42.06,8,1.89,11.37,5.8,12.1,14,.24,2.69.23,5.42.5,8.11.15,1.59-.34,2-1.91,1.95-10.55-.07-21.1,0-31.66,0Z"/><path class="cls-2" d="M729.29,278c-12.42.18-21.12-11.1-20.69-21.51a21.52,21.52,0,0,1,22.22-20.39c9.83.34,20.68,9.66,19.79,22.2C749.81,269.65,740.6,278.42,729.29,278Z"/><path class="cls-2" d="M168.27,809c1.14-1.48,2.3-2.94,3.42-4.44a1.11,1.11,0,0,1,1.31-.4q15.66,3,31.31,6a1.54,1.54,0,0,0,1.87-.66q2-3,3.94-6c1.11-1.66,2.24-3.31,3.35-5,2-3,3.89-6,6-8.93,1.36-1.87,2.6-3.83,3.9-5.74l4.57-6.67c1.48-2.18,2.91-4.42,4.53-6.5.6-.77.64-1.23-.21-1.86-2.76-2-5.4-4.19-8.18-6.18a56.47,56.47,0,0,0-7.63-4c-6.6-3.31-13.21-6.6-19.8-9.93q-11.52-5.82-23-11.72c-2.37-1.21-4.72-2.47-7.06-3.73a5,5,0,0,1-.73-.57c.57-1.23,1.73-2,2.33-3.25.84-1.76,2.19-2.05,4.06-1.78,9.54,1.37,19,3.09,28.53,4.58,1.58.24,3.33,1.05,4.67.48s2-2.22,3-3.38c1.37-1.58,2.53-3.32,4-4.82a3.29,3.29,0,0,1,4.62-.39,23.22,23.22,0,0,1,6.52,5.65,2.75,2.75,0,0,1-.1,3.32c-.28.4-.52.83-.8,1.24s-.53.74-.81,1.12a2.39,2.39,0,0,0,1.27.36c9.88,1.63,19.78,3.23,29.66,4.9a2.39,2.39,0,0,0,2.72-.91,26.16,26.16,0,0,0,3.05-3.83l1-1.28c1.33-1.35,2.39-2.93,3.61-4.37,1.49-1.79,2.86-3.68,4.42-5.41a76.2,76.2,0,0,1,6.56-7.34c5.26-5.25,11.05-9.79,18.08-12.49a19.63,19.63,0,0,1,5.08-1.28c3.69-.34,6,1.45,6.39,5.16a23.2,23.2,0,0,1-1.37,9.63,60.41,60.41,0,0,1-6.62,14.06c-1.57,2.48-3.27,4.86-5,7.25-.7,1.24-1.85,2.16-2.53,3.42-2,2.5-4.08,4.92-5.9,7.52a62.83,62.83,0,0,0-3.87,5.47,1,1,0,0,0-.1.86c3.67,10.88,7.34,21.77,11.07,32.85,1.75-2.18,3.34-4.68,6.56-2.53,1.57,1.18,3.11,2.38,4.57,3.69a25.28,25.28,0,0,1,1.77,1.82c1,1.2.95,2.47-.32,4.14a53.41,53.41,0,0,1-5.5,6.61,2.41,2.41,0,0,0-.58,2.94q6,14.85,12,29.72c.92,2.29.77,2.46-.8,3.9-.89.83-1.4,2.06-2.36,2.94-.63.57-.8.25-1.13-.14l-8.37-10.1-15-18.11c-4.7-5.65-9.38-11.31-14.1-16.94a44.36,44.36,0,0,0-5.43-6c-1.18-1.28-2.72-2.14-4-3.36-.92-.77-1.92-1.48-2.76-2.34s-1.35-.53-1.91.08c-1.94,2.1-3.82,4.26-5.75,6.37-1.46,1.59-2.92,3.18-4.52,4.64-.84.78-1.56,1.7-2.35,2.54-3.82,4.1-7.6,8.22-11.58,12.17-1.71,1.69-3.22,3.57-4.9,5.27a28.25,28.25,0,0,1-3.06,3.13c-.71.53-.59,1.21-.27,2,2.76,6.67,5.86,13.2,8.8,19.8,1.37,3,2.73,6.09,3.94,9.21a1.9,1.9,0,0,1-.41,2.21c-1.45,1.68-2.81,3.43-4.17,5.18-.69.89-1.12.75-1.77-.09-2.58-3.39-5.23-6.73-7.85-10.1-3.33-4.28-6.65-8.58-10-12.86-.21-.28-.5-.49-.72-.75-1.38-1.67-1.38-1.69-3.08-.42-4.44,3.34-8.8,6.79-13.67,9.49-.43.24-.88.45-1.46.74a5.55,5.55,0,0,1,.38-2.11c1.65-5.53,4.22-10.68,6.6-15.91.39-.86.25-1.15-.55-1.54-4.05-1.94-8.05-4-12.1-5.92-5.64-2.7-11.31-5.35-17-8C167,810.42,167.9,809.89,168.27,809Z"/></svg>