<svg xmlns="http://www.w3.org/2000/svg" viewBox="0 0 1024 1024"><defs><style>.cls-1{isolation:isolate;}.cls-2{mix-blend-mode:overlay;}.cls-3{fill:#f16a3e;}.cls-4{fill:none;}.cls-5{fill:#aaa;}.cls-6{fill:#010101;}.cls-7{fill:#fefefe;}</style></defs><g class="cls-1"><g id="Layer_1" data-name="Layer 1"><g class="cls-2"><path class="cls-3" d="M832.28,229.66c0-3.2-.71-4-3.95-4q-142,.15-283.93.08-142.29,0-284.57-.08c-3.22,0-4,.75-4,4q.15,135.24,0,270.47c0,3.22.74,4,4,4q284.25-.13,568.5,0c3.22,0,3.95-.75,3.95-4Q832.13,364.91,832.28,229.66ZM444.62,268.74c1.64-1.85,5.42-.59,8.27-.59q78.47-.06,156.93-.09c3,0,4.57.44,4,3.88-.41,2.6,1.08,6-.58,7.71s-5.07.51-7.71.52q-38.26.06-76.54,0c-27.12,0-54.24-.05-81.35.06-2.74,0-3.89-.54-3.56-3.48C444.41,274.05,443.22,270.33,444.62,268.74Zm-.47,61.63c0-1.36.5-2,1.88-1.86.63.05,1.28,0,1.92,0q81,0,162.06-.07c3.07,0,4.21.7,3.84,3.83-.31,2.63.82,6.18-.52,7.72-1.59,1.82-5.22.6-8,.6q-38.28.07-76.55,0c-27.11,0-54.23,0-81.35.06-2.58,0-3.67-.5-3.37-3.28A55.1,55.1,0,0,0,444.15,330.37Zm.64,59.27c1.74-1.71,5.48-.48,8.34-.49q38,0,76,0c27.14,0,54.27,0,81.4-.06,2.6,0,3.7.54,3.37,3.29a24.13,24.13,0,0,0,0,5.76c.3,2.64-.81,3.15-3.24,3.14q-57-.11-114.09,0c-16.45,0-32.9-.05-49.35,0-2.37,0-3.33-.57-3-3C444.48,395.32,442.88,391.51,444.79,389.64ZM288.72,313.8c.71-1.16,1.89-.78,2.91-.8,23.18-.45,46.35-.92,69.52-1.27a4.66,4.66,0,0,0,4.52-2.59C373,297,380.4,284.9,387.83,272.82c2.69-4.37,6.41-5.73,10.55-4,5.1,2.1,6.71,7.15,3.66,12.18-6.67,11-13.21,22.18-20.32,32.94-2.85,4.31-2.83,7.39-.28,11.87,10.56,18.64,20.61,37.57,31,56.33a4.06,4.06,0,0,1-.14,4.86c-2.51,3.83-4.83,7.79-7.4,12-14.73-16.51-29.37-32.91-44.24-49.59-1.56,2.47-3,4.76-4.45,7.08-4.08,6.64-8.09,13.31-12.23,19.9a4.5,4.5,0,0,0-.37,4.71c1.83,4.2,3.35,8.52,5.07,12.77a3.39,3.39,0,0,1-.2,3.56c-1.71,2.57-3.31,5.22-4.83,7.92-.91,1.62-1.56,1.54-2.75.22-4.13-4.61-8.41-9.09-12.55-13.7a8,8,0,0,0-4.56-2.64c-6.77-1.42-13.5-3-20.65-4.66,2.2-3.64,4.26-7.1,6.38-10.51.86-1.4,2.45-1.12,3.76-1.32q6.79-1,13.63-1.9a3,3,0,0,0,2.6-1.45c5.59-9.2,11.23-18.36,17.15-28l-66.28-13.85C283.21,322.79,286,318.29,288.72,313.8ZM613.31,461.16c-1.63,1.68-5.07.51-7.7.51q-77.9,0-155.77,0-79.8,0-159.61.08c-3.07,0-4.24-.69-3.8-3.81.39-2.7-1.16-6.35.67-7.92,1.57-1.35,5.08-.49,7.74-.49q157.52,0,315.05-.09c3.22,0,4.4.72,4,4C613.48,456.05,614.91,459.49,613.31,461.16Zm36.86-154.28c0-1.69.3-2.5,2.24-2.44,4.58.13,9.17.12,13.75,0,1.93-.05,2.29.74,2.27,2.45-.07,7.24,0,14.49,0,21.74s0,14.5,0,21.75c0,1.73-.37,2.45-2.27,2.4-4.58-.13-9.17-.14-13.75,0-1.93.06-2.25-.69-2.24-2.41Q650.26,328.64,650.17,306.88ZM653,243.82c4.37.16,8.75.1,13.12,0,1.62,0,2.27.45,2.27,2.16q-.09,19,0,38.1c0,1.79-.7,2.13-2.27,2.1-4.59-.08-9.18-.12-13.77,0-2,0-2.24-.78-2.22-2.45.08-6.3,0-12.6,0-18.9,0-6.08.11-12.17-.05-18.25C650.08,244.31,650.84,243.74,653,243.82ZM650.2,395c0-7.14.06-14.29,0-21.43,0-2,.36-2.86,2.59-2.77,4.47.17,9,.1,13.43,0,1.63,0,2.25.5,2.25,2.19q-.07,22.07,0,44.13c0,2-.82,2.26-2.48,2.22-4.37-.08-8.75-.13-13.11,0-2.07.07-2.74-.5-2.7-2.64C650.28,409.52,650.2,402.27,650.2,395Zm15.68,90.9c-4.37-.12-8.75-.16-13.12,0-2.22.09-2.63-.77-2.6-2.77.11-7.15,0-14.3,0-21.44s.06-14.52,0-21.77c0-1.94.47-2.61,2.49-2.54,4.48.14,9,.12,13.44,0,1.88-.05,2.34.66,2.34,2.41q-.07,21.78,0,43.54C668.45,485.33,667.84,486,665.88,485.92ZM801.44,340c-1.67,1.8-5.25.57-8,.58-14.4.06-28.81,0-43.21,0-16.22,0-32.44-.05-48.66.05-2.25,0-3-.57-2.8-2.83.24-3-1-6.92.54-8.66,1.75-2,5.82-.63,8.87-.64,30.09-.05,60.18,0,90.27-.1,2.84,0,3.85.69,3.5,3.54S803.08,338.26,801.44,340Zm-102.1,49.75c1.69-1.94,5.61-.6,8.55-.61,30.23-.05,60.45,0,90.68-.08,2.55,0,3.74.47,3.41,3.28a28.64,28.64,0,0,0,0,6.07c.22,2.34-.75,2.84-2.92,2.83-16.34-.08-32.68,0-49,0-16,0-32-.06-48.06,0-2.49,0-3.43-.58-3.19-3.16C699.06,395.27,697.89,391.44,699.34,389.77ZM801.4,461.12c-1.74,1.79-5.46.54-8.31.55-14.2.05-28.41,0-42.62,0-16.23,0-32.47-.05-48.7.06-2.39,0-3.21-.54-3-3,.28-2.94-.89-6.85.6-8.64s5.61-.56,8.56-.56c30.23-.05,60.46,0,90.69-.09,2.6,0,3.67.57,3.34,3.3S803.12,459.34,801.4,461.12Zm0-181.56c-1.73,1.88-5.44.6-8.28.61-30.3,0-60.61,0-90.91.1-2.9,0-3.73-.76-3.45-3.53s-.86-6.45.54-8c1.64-1.83,5.41-.57,8.25-.58,14.3-.06,28.6,0,42.9,0,16.11,0,32.22.06,48.34-.06,2.48,0,3.45.57,3.16,3.15C801.65,274.05,803.11,277.72,801.42,279.56Z"/><path class="cls-3" d="M512.64,213.87H775.45c4.11,0,4.11,0,3.43-3.84q-7.95-45.37-15.85-90.77c-.32-1.86-.69-2.45-2.8-2.06-22.13,4.08-44.29,8-66.43,12Q636,139.64,578.27,150.13,524.12,159.91,470,169.62q-64.71,11.7-129.39,23.44-72.88,13.19-145.78,26.27c-2,.36-2.27.93-1.93,2.86,5.53,30.75,10.94,61.53,16.43,92.29q15.59,87.4,31.14,174.81c.47,2.62,1.48,2.75,3.59,2.37,2.75-.49,1.77-2.54,1.77-4q.06-134.94,0-269.87c0-3.36.95-4,4.08-4Q381.24,213.93,512.64,213.87Z"/></g><path class="cls-4" d="M460.47,682.93c-.32,2.93.82,3.49,3.56,3.48,27.12-.11,54.23-.07,81.35-.07q38.26,0,76.55,0c2.63,0,6,1.17,7.7-.53s.17-5.11.58-7.71c.54-3.44-1-3.88-4-3.88q-78.47.13-156.94.1c-2.84,0-6.63-1.26-8.27.59C459.58,676.47,460.77,680.19,460.47,682.93Z"/><path class="cls-4" d="M666.56,671c0,6.3.05,12.6,0,18.89,0,1.68.26,2.51,2.23,2.45,4.58-.13,9.17-.09,13.76,0,1.57,0,2.28-.32,2.28-2.1q-.1-19.05,0-38.1c0-1.71-.64-2.19-2.27-2.16-4.37.08-8.75.14-13.12,0-2.2-.09-2.95.49-2.89,2.8C666.67,658.85,666.56,664.94,666.56,671Z"/><path class="cls-4" d="M668.77,758.93c4.58-.14,9.17-.13,13.75,0,1.9.06,2.29-.66,2.28-2.39-.09-7.25,0-14.5,0-21.75s0-14.5,0-21.75c0-1.7-.34-2.5-2.27-2.44q-6.87.18-13.75,0c-1.94-.05-2.24.75-2.24,2.45q.09,21.75,0,43.49C666.52,758.23,666.84,759,668.77,758.93Z"/><path class="cls-4" d="M630.21,859.59c.45-3.26-.74-4-4-4q-157.51.14-315,.09c-2.65,0-6.17-.86-7.73.48-1.83,1.58-.29,5.22-.67,7.92-.44,3.13.72,3.82,3.79,3.82q79.82-.17,159.61-.08,77.9,0,155.77,0c2.64,0,6.08,1.17,7.7-.52S629.85,862.2,630.21,859.59Z"/><path class="cls-4" d="M463.85,746.83c27.11-.09,54.23-.05,81.35-.05q38.26,0,76.54,0c2.74,0,6.37,1.22,8-.6,1.34-1.54.21-5.09.52-7.72.37-3.13-.76-3.84-3.84-3.84q-81,.15-162.06.08c-.64,0-1.28,0-1.92,0-1.38-.11-1.91.5-1.88,1.86a55.1,55.1,0,0,1,0,7C460.17,746.34,461.27,746.84,463.85,746.83Z"/><path class="cls-4" d="M669.21,825.55c4.36-.15,8.74-.1,13.11,0,1.66,0,2.49-.26,2.48-2.22q-.1-22.06,0-44.13c0-1.69-.61-2.22-2.25-2.19-4.47.08-9,.15-13.43,0-2.23-.09-2.62.79-2.59,2.77.11,7.14,0,14.28,0,21.43s.08,14.49,0,21.74C666.47,825.05,667.15,825.62,669.21,825.55Z"/><path class="cls-4" d="M460.49,804.39c-.29,2.45.67,3,3,3,16.45-.1,32.9-.06,49.36-.06q57,0,114.08,0c2.43,0,3.55-.5,3.24-3.14a24.66,24.66,0,0,1,0-5.76c.33-2.76-.77-3.3-3.36-3.29-27.14.1-54.27.06-81.4.06q-38,0-76,0c-2.86,0-6.61-1.22-8.35.49C459.24,797.66,460.84,801.46,460.49,804.39Z"/><path class="cls-4" d="M684.79,846c0-1.75-.46-2.47-2.33-2.42-4.48.12-9,.14-13.45,0-2-.06-2.52.61-2.49,2.55.11,7.25,0,14.51,0,21.76s.07,14.3,0,21.45c0,2,.39,2.85,2.6,2.77,4.37-.17,8.75-.14,13.12,0,2,0,2.57-.6,2.56-2.56Q684.7,867.75,684.79,846Z"/><path class="cls-4" d="M818.33,858.93c.33-2.74-.73-3.31-3.34-3.3-30.23.09-60.46,0-90.69.08-2.95,0-7-1.31-8.56.57s-.32,5.69-.59,8.64c-.23,2.43.6,3,3,3,16.23-.11,32.47-.06,48.71-.06,14.2,0,28.41,0,42.62,0,2.84,0,6.57,1.25,8.3-.55S818,861.76,818.33,858.93Z"/><path class="cls-4" d="M818.33,677.35c.29-2.57-.68-3.16-3.16-3.14-16.11.11-32.23.06-48.34.06-14.3,0-28.6,0-42.9,0-2.84,0-6.61-1.25-8.25.57-1.4,1.56-.25,5.28-.53,8s.55,3.55,3.44,3.54c30.3-.12,60.61-.06,90.92-.11,2.83,0,6.55,1.28,8.27-.6S818,680.19,818.33,677.35Z"/><path class="cls-4" d="M814.84,734.6c-30.1.11-60.19,0-90.28.1-3,0-7.12-1.39-8.86.63-1.51,1.75-.31,5.71-.55,8.67-.19,2.26.55,2.84,2.8,2.83,16.22-.1,32.44-.05,48.66-.05,14.41,0,28.81,0,43.22,0,2.73,0,6.3,1.22,8-.58s.2-5.31.53-8S817.67,734.59,814.84,734.6Z"/><path class="cls-4" d="M715.15,804.26c-.25,2.58.69,3.18,3.18,3.16,16-.11,32-.06,48.06-.06,16.34,0,32.68,0,49,0,2.16,0,3.14-.49,2.92-2.83a28.74,28.74,0,0,1,0-6.08c.34-2.8-.85-3.28-3.41-3.28-30.22.09-60.45,0-90.68.09-2.94,0-6.85-1.33-8.54.61C714.25,797.58,715.42,801.41,715.15,804.26Z"/><path class="cls-3" d="M848.64,635.81c0-3.2-.71-4-3.95-4q-142,.15-283.93.08-142.27,0-284.57-.08c-3.22,0-4,.75-4,4q.15,135.23,0,270.47c0,3.22.75,4,4,4q284.25-.13,568.5,0c3.23,0,4-.75,3.95-4Q848.5,771,848.64,635.81ZM461,674.89c1.64-1.85,5.43-.59,8.27-.59q78.46-.06,156.94-.1c3,0,4.56.44,4,3.88-.41,2.6,1.08,6-.58,7.71s-5.07.52-7.7.53q-38.28.06-76.55,0c-27.12,0-54.23,0-81.35.07-2.74,0-3.88-.55-3.56-3.48C460.77,680.19,459.58,676.47,461,674.89Zm-.47,61.63c0-1.36.5-2,1.88-1.86.64.05,1.28,0,1.92,0q81,0,162.06-.08c3.08,0,4.21.71,3.84,3.84-.31,2.63.82,6.18-.52,7.72-1.58,1.82-5.21.59-8,.6q-38.26.06-76.54,0c-27.12,0-54.24,0-81.35.05-2.58,0-3.68-.49-3.38-3.27A55.1,55.1,0,0,0,460.51,736.52Zm.64,59.27c1.74-1.71,5.49-.49,8.35-.49q38-.06,76,0c27.13,0,54.26,0,81.4-.06,2.59,0,3.69.53,3.36,3.29a24.66,24.66,0,0,0,0,5.76c.31,2.64-.81,3.15-3.24,3.14q-57-.1-114.08,0c-16.46,0-32.91,0-49.36.06-2.37,0-3.33-.58-3-3C460.84,801.46,459.24,797.66,461.15,795.79ZM280.34,650h169.8V832.17H280.34ZM629.67,867.3c-1.62,1.69-5.06.51-7.7.52q-77.88,0-155.77,0-79.8,0-159.61.08c-3.07,0-4.23-.69-3.79-3.82.38-2.7-1.16-6.34.67-7.92,1.56-1.34,5.08-.48,7.73-.48q157.53,0,315.05-.09c3.22,0,4.41.72,4,4C629.85,862.2,631.28,865.64,629.67,867.3ZM669.4,650c4.37.16,8.75.1,13.12,0,1.63,0,2.28.45,2.27,2.16q-.07,19.05,0,38.1c0,1.78-.71,2.12-2.28,2.1-4.59-.08-9.18-.12-13.76,0-2,.06-2.25-.77-2.23-2.45.08-6.29,0-12.59,0-18.89,0-6.08.11-12.17,0-18.25C666.45,650.46,667.2,649.88,669.4,650ZM666.53,713c0-1.7.3-2.5,2.24-2.45q6.87.2,13.75,0c1.93-.06,2.29.74,2.27,2.44-.07,7.25,0,14.5,0,21.75s0,14.5,0,21.75c0,1.73-.38,2.45-2.28,2.39-4.58-.12-9.17-.13-13.75,0-1.93.05-2.25-.7-2.24-2.41Q666.62,734.77,666.53,713Zm0,88.14c0-7.15.07-14.29,0-21.43,0-2,.36-2.86,2.59-2.77,4.47.17,9,.1,13.43,0,1.64,0,2.25.5,2.25,2.19q-.07,22.07,0,44.13c0,2-.82,2.25-2.48,2.22-4.37-.08-8.75-.13-13.11,0-2.06.07-2.74-.5-2.7-2.64C666.64,815.66,666.56,808.41,666.56,801.17Zm15.68,90.9c-4.37-.13-8.75-.16-13.12,0-2.21.08-2.63-.77-2.6-2.77.11-7.15,0-14.3,0-21.45s.07-14.51,0-21.76c0-1.94.48-2.61,2.49-2.55,4.48.15,9,.13,13.45,0,1.87,0,2.34.67,2.33,2.42q-.07,21.76,0,43.53C684.81,891.47,684.21,892.12,682.24,892.07ZM817.8,746.17c-1.67,1.8-5.24.57-8,.58-14.41.06-28.81,0-43.22,0-16.22,0-32.44,0-48.66.05-2.25,0-3-.57-2.8-2.83.24-3-1-6.92.55-8.67,1.74-2,5.81-.63,8.86-.63,30.09-.05,60.18,0,90.28-.1,2.83,0,3.84.69,3.49,3.53S819.44,744.41,817.8,746.17ZM715.71,795.92c1.69-1.94,5.6-.61,8.54-.61,30.23,0,60.46,0,90.68-.09,2.56,0,3.75.48,3.41,3.28a28.74,28.74,0,0,0,0,6.08c.22,2.34-.76,2.84-2.92,2.83-16.35-.08-32.69,0-49,0-16,0-32-.05-48.06.06-2.49,0-3.43-.58-3.18-3.16C715.42,801.41,714.25,797.58,715.71,795.92Zm102,71.34c-1.73,1.8-5.46.54-8.3.55-14.21.06-28.42,0-42.62,0-16.24,0-32.48-.05-48.71.06-2.38,0-3.21-.55-3-3,.27-2.95-.9-6.86.59-8.64s5.61-.56,8.56-.57c30.23,0,60.46,0,90.69-.08,2.61,0,3.67.56,3.34,3.3S819.49,865.48,817.76,867.26Zm0-181.55c-1.72,1.88-5.44.6-8.27.6-30.31.05-60.62,0-90.92.11-2.89,0-3.73-.76-3.44-3.54s-.87-6.45.53-8c1.64-1.82,5.41-.56,8.25-.57,14.3-.06,28.6,0,42.9,0,16.11,0,32.23.05,48.34-.06,2.48,0,3.45.57,3.16,3.14C818,680.19,819.47,683.87,817.78,685.71Z"/><path class="cls-3" d="M529,620H791.81c4.12,0,4.11,0,3.44-3.84q-7.95-45.37-15.86-90.77c-.32-1.86-.68-2.45-2.79-2.06-22.13,4.07-44.29,8-66.44,12q-57.76,10.44-115.53,20.94-54.15,9.78-108.31,19.49-64.69,11.68-129.39,23.44-72.87,13.18-145.78,26.27c-2,.36-2.27.93-1.92,2.85,5.52,30.76,10.93,61.53,16.42,92.3Q241.24,808,256.8,895.44c.46,2.62,1.47,2.75,3.58,2.37,2.75-.49,1.77-2.55,1.77-4q.06-134.92,0-269.86c0-3.37,1-4,4.09-4Q397.59,620.08,529,620Z"/><path class="cls-3" d="M322.52,734.77c1.93,0,3.85,0,5.77,0s3.81,0,5.72,0c.29,0,.41,0,.41-.39,0-1.79,0-3.58,0-5.38,0-.32-.09-.39-.4-.39H322.53c-.31,0-.45,0-.44.41,0,1.78,0,3.55,0,5.33C322.08,734.71,322.2,734.77,322.52,734.77Z"/><path class="cls-3" d="M334,777.88H322.53c-.33,0-.45.06-.44.42,0,1.77,0,3.55,0,5.33,0,.36.13.41.44.4H334c.31,0,.41,0,.41-.38,0-1.8,0-3.59,0-5.38C334.42,777.93,334.31,777.88,334,777.88Z"/><path class="cls-3" d="M371,704H359.39c-.32,0-.36.11-.36.39,0,1.79,0,3.58,0,5.38,0,.31.08.4.39.39H371c.26,0,.37,0,.36-.33,0-1.83,0-3.65,0-5.48C371.37,704.05,371.29,704,371,704Z"/><path class="cls-3" d="M371,753.25H359.39c-.31,0-.36.09-.36.38,0,1.79,0,3.59,0,5.38,0,.31.08.4.39.39H371c.25,0,.37,0,.37-.33,0-1.82,0-3.65,0-5.47C371.37,753.33,371.3,753.25,371,753.25Z"/><path class="cls-3" d="M359.48,734.77c1.91,0,3.81,0,5.72,0s3.84,0,5.76,0c.31,0,.41-.07.41-.39,0-1.8,0-3.59,0-5.38,0-.33-.11-.39-.41-.39H359.48c-.35,0-.46.07-.46.44q0,2.64,0,5.28C359,734.72,359.14,734.77,359.48,734.77Z"/><path class="cls-3" d="M371.37,778.33c0-.37-.09-.46-.45-.45H359.48c-.34,0-.46.06-.46.44q0,10.32,0,20.64c0,.38.09.49.47.49q5.7,0,11.39,0c.38,0,.48-.1.48-.48,0-3.42,0-6.85,0-10.27S371.35,781.78,371.37,778.33Z"/><path class="cls-3" d="M372.11,685.38a.52.52,0,0,1-.41,0l.24,0a2.14,2.14,0,0,0-.19-.13l-6.16-3.58a.62.62,0,0,0-.74,0c-.64.41-1.3.78-2,1.15l-4.06,2.32h0l-.51.37.19,0h13.22a.71.71,0,0,0,.25,0,.2.2,0,0,0,.13-.08h0Z"/><path class="cls-3" d="M396.59,684.82l0,0c-.13-.06-.27-.12-.39-.19-1.64-.94-3.29-1.87-4.91-2.85a1,1,0,0,0-1.2,0c-1.57.94-3.16,1.83-4.75,2.74h0l-1.51.94h13.78Z"/><path class="cls-3" d="M346.47,685.35,340,681.56a.39.39,0,0,0-.48,0c-.52.31-1.06.61-1.59.91l-5.11,3H346.6Z"/><path class="cls-3" d="M396.38,734.77c1.9,0,3.81,0,5.72,0s3.87,0,5.81,0c.29,0,.41,0,.41-.39,0-1.79,0-3.58,0-5.38,0-.32-.09-.39-.4-.39H396.39c-.3,0-.42,0-.41.39q0,2.68,0,5.37C396,734.7,396.07,734.77,396.38,734.77Z"/><path class="cls-3" d="M322.52,710.13H334c.29,0,.41,0,.41-.38,0-1.79,0-3.59,0-5.38,0-.32-.09-.4-.4-.4H322.49c-.33,0-.4.11-.4.41,0,1.78,0,3.56,0,5.33C322.08,710.06,322.19,710.14,322.52,710.13Z"/><path class="cls-3" d="M334,753.25H322.52c-.33,0-.44.08-.43.42,0,1.78,0,3.55,0,5.33,0,.32.08.41.4.4H334c.31,0,.4-.07.4-.39,0-1.78,0-3.56,0-5.33C334.43,753.28,334.28,753.25,334,753.25Z"/><path class="cls-3" d="M280.34,650V832.17h169.8V650ZM429.93,802.75h-.08a3.06,3.06,0,0,1-2.82,2.82.14.14,0,0,0,0,.09H303.36a.14.14,0,0,0,0-.09,3.07,3.07,0,0,1-2.81-3v-.29q0-50.12,0-100.24c0-6.7,3.15-11.66,9.07-14.8a14,14,0,0,1,6.21-1.63.58.58,0,0,1,.26-.05,8.53,8.53,0,0,1,1.13,0c5,0,9.92,0,14.88,0h.06c.46,0,.58-.15.65-.55q.71-3.65,1.45-7.29c.06-.29-.09-.41-.26-.56l-5.51-4.81a.88.88,0,0,0-.22-.1l.07-.12,3-.36c1.49-.18,3-.36,4.47-.52a.71.71,0,0,0,.63-.48c1.08-2.23,2.17-4.44,3.26-6.67.2.07.2.25.26.39q1.56,3.18,3.11,6.37a.55.55,0,0,0,.49.37c2.05.23,4.1.48,6.15.73l1.47.18L347.91,675l-2.52,2.19a.52.52,0,0,0-.18.59q.72,3.63,1.41,7.26c.06.28.14.44.4.49l1.26,0q4.61,0,9.21,0c.48,0,.84,0,.87-.6.27-1.46.54-2.92.82-4.37q.26-1.35.54-2.7a.7.7,0,0,0-.27-.78c-1.83-1.56-3.63-3.15-5.44-4.74l-.26-.23,2.25-.28c1.76-.21,3.52-.43,5.28-.62a.7.7,0,0,0,.63-.48c1.08-2.22,2.17-4.45,3.26-6.67.18.08.2.25.27.39,1,2.09,2.06,4.18,3.06,6.28a.76.76,0,0,0,.68.49l6.05.71,1.44.18-2.2,1.93c-1.18,1-2.35,2.07-3.54,3.08a.65.65,0,0,0-.24.71c.48,2.39.95,4.77,1.42,7.16a.75.75,0,0,1,0,.42h0a.43.43,0,0,0,.21.09H373c3.41,0,6.82,0,10.24,0,.38,0,.54-.1.56-.49a4.33,4.33,0,0,1,.19-.79c.24-1.28.47-2.57.71-3.85.17-.88.35-1.77.53-2.65a.58.58,0,0,0-.24-.62l-5.06-4.43-.66-.59,2.25-.28,5.23-.61a.76.76,0,0,0,.68-.49c1-2.09,2-4.16,3-6.24l.24-.5c.55,1.11,1.06,2.15,1.57,3.2.6,1.22,1.21,2.45,1.8,3.68a.5.5,0,0,0,.47.32l6.19.74,1.43.18c-.89.79-1.73,1.51-2.56,2.24-1.06.93-2.11,1.86-3.18,2.77a.61.61,0,0,0-.23.69c.45,2.21.88,4.42,1.32,6.64,0,.12,0,.25,0,.38.17.51.22.64.56.68h15.6a2.28,2.28,0,0,1,.86.07,15,15,0,0,1,8.16,2.76,16.09,16.09,0,0,1,7.1,12.13c0,.31,0,.61,0,.92h.08Z"/><path class="cls-3" d="M407.9,704c-3.83,0-7.66,0-11.49,0-.38,0-.43.12-.43.46q0,2.64,0,5.28c0,.34.08.43.42.42h11.48c.32,0,.44,0,.44-.4,0-1.78,0-3.56,0-5.33C408.32,704.06,408.24,704,407.9,704Z"/><path class="cls-3" d="M407.92,753.25H396.39c-.29,0-.42,0-.41.38,0,1.79,0,3.59,0,5.38,0,.32.09.4.4.39h11.53c.29,0,.41,0,.41-.38,0-1.79,0-3.58,0-5.38C408.32,753.32,408.23,753.25,407.92,753.25Z"/><path class="cls-3" d="M423.72,702.1a10,10,0,0,0-3.86-8.33,10.23,10.23,0,0,0-6.54-2.11H316.24a9.88,9.88,0,0,0-6.48,2.77,10.26,10.26,0,0,0-3.06,7.72q0,48.36,0,96.71c0,.48.14.57.59.57q22.53,0,45.05,0c.47,0,.58-.12.58-.58,0-8,0-15.91,0-23.86a3.08,3.08,0,0,1,3.3-3.29h17.85a3.15,3.15,0,0,1,3.48,3.51c0,7.87,0,15.74,0,23.62,0,.48.11.6.6.6q22.5,0,45,0c.47,0,.62-.08.62-.59q0-18.29,0-36.57Q423.72,732.2,423.72,702.1Zm-107.79-.91a3.25,3.25,0,0,1,3.43-3.4c3,.06,5.95,0,8.92,0h8.92a3.14,3.14,0,0,1,3.39,3.37v11.73a3.14,3.14,0,0,1-3.38,3.39c-6,0-11.93,0-17.89,0a3.24,3.24,0,0,1-3.39-3.39Q316,707.06,315.93,701.19Zm0,24.62a3.23,3.23,0,0,1,3.39-3.38c3,.06,6,0,9,0h9a3.12,3.12,0,0,1,3.32,3.3q0,5.94,0,11.88a3.11,3.11,0,0,1-3.34,3.31H319.3a3.11,3.11,0,0,1-3.35-3.35C316,733.66,316,729.74,315.94,725.81Zm24.64,61.07a3.09,3.09,0,0,1-3.29,3.32H319.21a3.08,3.08,0,0,1-3.26-3.29V775a3.09,3.09,0,0,1,3.28-3.27h18a3.11,3.11,0,0,1,3.32,3.33Q340.6,781,340.58,786.88Zm-3.37-21.31H319.27a3.1,3.1,0,0,1-3.32-3.33V750.36a3.09,3.09,0,0,1,3.31-3.28H337.2a3.14,3.14,0,0,1,3.39,3.37v11.73A3.14,3.14,0,0,1,337.21,765.57Zm40.32-3.37a3.12,3.12,0,0,1-3.34,3.37h-18a3.09,3.09,0,0,1-3.3-3.3c0-4,0-7.95,0-11.92a3.08,3.08,0,0,1,3.28-3.27h17.93a3.13,3.13,0,0,1,3.42,3.39ZM352.9,737.69q0-6,0-12a3.07,3.07,0,0,1,3.23-3.21h18a3.13,3.13,0,0,1,3.37,3.34q0,5.93,0,11.83a3.11,3.11,0,0,1-3.29,3.32q-9,0-18.08,0A3.07,3.07,0,0,1,352.9,737.69Zm24.63-24.81a3.14,3.14,0,0,1-3.44,3.42H356.16a3.1,3.1,0,0,1-3.18-2.38,3.89,3.89,0,0,1-.08-1c0-4,0-7.89,0-11.83a3.1,3.1,0,0,1,3.33-3.32h17.84a3.15,3.15,0,0,1,3.46,3.44Zm12.3,13a3.26,3.26,0,0,1,3.44-3.43c6,.05,11.89,0,17.84,0a3.13,3.13,0,0,1,3.37,3.34q0,5.9,0,11.78a3.13,3.13,0,0,1-3.38,3.38h-18a3.08,3.08,0,0,1-3.16-2.33,3.78,3.78,0,0,1-.1-1.06C389.84,733.65,389.88,729.75,389.83,725.86Zm24.64,61a3.09,3.09,0,0,1-3.29,3.32H393.1a3.06,3.06,0,0,1-3.25-3.25q0-6,0-12a3.08,3.08,0,0,1,3.33-3.26h18a3.1,3.1,0,0,1,3.31,3.29Q414.49,780.94,414.47,786.88Zm0-24.75a3.14,3.14,0,0,1-3.42,3.44H393.13a3.11,3.11,0,0,1-3.2-2.36,3.8,3.8,0,0,1-.09-1c0-3.91,0-7.82,0-11.73a3.25,3.25,0,0,1,3.42-3.41c3,.06,5.94,0,8.92,0h8.92a3.13,3.13,0,0,1,3.39,3.41Zm0-49.25A3.14,3.14,0,0,1,411,716.3H393.1a3.08,3.08,0,0,1-3.17-2.38,4.26,4.26,0,0,1-.08-1c0-3.9,0-7.79,0-11.68a3.25,3.25,0,0,1,3.44-3.44c3,.06,5.92,0,8.87,0H411a3.15,3.15,0,0,1,3.47,3.44Z"/><path class="cls-3" d="M407.86,777.88H396.38c-.32,0-.4.08-.4.39,0,1.8,0,3.59,0,5.38,0,.34.12.38.41.38,3.84,0,7.68,0,11.53,0,.31,0,.4-.08.4-.4,0-1.77,0-3.55,0-5.33C408.33,777.92,408.2,777.88,407.86,777.88Z"/><path class="cls-3" d="M429.85,802.75h0Z"/><path class="cls-3" d="M396.65,684.73a.27.27,0,0,0-.08.07l0,0Z"/><polygon class="cls-3" points="385.31 684.5 385.31 684.51 385.32 684.51 385.31 684.5"/><polygon class="cls-3" points="358.84 685.09 358.84 685.09 358.84 685.09 358.84 685.09"/><path class="cls-3" d="M427,805.66a.14.14,0,0,1,0-.09h0A.28.28,0,0,1,427,805.66Z"/><path class="cls-5" d="M426.54,805.56H303.36a.14.14,0,0,1,0,.09H427a.28.28,0,0,0,0-.09Z"/><path class="cls-6" d="M315.85,685.57a1.09,1.09,0,0,1,.26-.05A.58.58,0,0,0,315.85,685.57Z"/><path class="cls-6" d="M372.67,685.49h-.34A1.93,1.93,0,0,0,372.67,685.49Z"/><path class="cls-6" d="M372.33,685.48a.43.43,0,0,1-.21-.09.2.2,0,0,1-.13.08Z"/><polygon class="cls-6" points="372.13 685.38 372.13 685.38 372.13 685.38 372.13 685.38"/><path class="cls-6" d="M372,685.36h-.1a.29.29,0,0,0,.16,0Z"/><path class="cls-6" d="M358.36,684.9c.2,0,.33.1.48.19A.3.3,0,0,0,358.36,684.9Z"/><path class="cls-7" d="M372.12,685.39h0Z"/><path class="cls-7" d="M372.12,685.38h0Z"/><polygon class="cls-7" points="372.13 685.38 372.13 685.38 372.12 685.38 372.13 685.38"/><path class="cls-7" d="M372.11,685.38h0Z"/><polygon class="cls-7" points="372.12 685.38 372.13 685.38 372.13 685.38 372.12 685.38 372.12 685.38"/></g></g></svg>